<svg width="48" height="48" viewBox="0 0 48 48" fill="none" xmlns="http://www.w3.org/2000/svg">
<path d="M23.5424 30.73C24.7424 30.73 25.7324 31.63 25.8824 32.8C26.7624 32.58 27.5824 32.23 28.3424 31.77C27.6224 30.84 27.6924 29.5 28.5324 28.65C29.3824 27.8 30.7124 27.73 31.6424 28.46C32.0924 27.7 32.4424 26.87 32.6624 25.98C31.5024 25.84 30.6024 24.84 30.6024 23.63C30.6024 22.42 31.5024 21.43 32.6624 21.28C32.4424 20.4 32.0924 19.57 31.6424 18.8C30.7224 19.52 29.3824 19.46 28.5324 18.61C27.6824 17.76 27.6224 16.42 28.3424 15.49C27.5824 15.04 26.7524 14.69 25.8824 14.46C25.7424 15.63 24.7524 16.53 23.5424 16.53C22.3324 16.53 21.3524 15.63 21.2024 14.46C20.3224 14.68 19.5024 15.03 18.7424 15.49C19.4624 16.42 19.3924 17.76 18.5524 18.61C17.7024 19.46 16.3724 19.53 15.4424 18.8C14.9924 19.56 14.6424 20.39 14.4224 21.28C15.5824 21.42 16.4824 22.42 16.4824 23.63C16.4824 24.84 15.5824 25.83 14.4224 25.98C14.6424 26.86 14.9924 27.69 15.4424 28.46C16.3624 27.74 17.7024 27.8 18.5524 28.65C19.4024 29.5 19.4624 30.84 18.7424 31.77C19.5024 32.22 20.3324 32.57 21.2024 32.8C21.3424 31.63 22.3324 30.73 23.5424 30.73ZM20.0124 23.64C20.0124 21.68 21.5924 20.09 23.5424 20.09C25.4924 20.09 27.0724 21.68 27.0724 23.64C27.0724 25.6 25.4924 27.19 23.5424 27.19C21.5924 27.19 20.0124 25.6 20.0124 23.64Z" fill="#1C1C1C"/>
<path d="M42.3725 23.64C42.3725 28.48 40.5325 33.32 36.8525 37.02C29.5025 44.41 17.5725 44.41 10.2225 37.02C2.8725 29.63 2.8725 17.65 10.2225 10.27C13.9025 6.58 18.7225 4.73 23.5325 4.73V0C17.5125 0 11.4825 2.31 6.8925 6.93C-2.2975 16.16 -2.2975 31.14 6.8925 40.37C16.0825 49.6 30.9825 49.6 40.1825 40.37C44.7825 35.75 47.0725 29.7 47.0725 23.65H42.3625L42.3725 23.64Z" fill="#1C1C1C"/>
<path d="M25.8925 7.08988H23.5425C19.1425 7.08988 15.0025 8.80988 11.8925 11.9399C8.68251 15.1699 7.07251 19.4099 7.07251 23.6399H10.5925C10.5925 20.3099 11.8525 16.9799 14.3825 14.4399C19.4425 9.35988 27.6325 9.35988 32.6925 14.4399C37.7525 19.5199 37.7525 27.7499 32.6925 32.8299C30.1625 35.3699 26.8525 36.6399 23.5425 36.6399V40.1799C27.7625 40.1799 31.9825 38.5699 35.1925 35.3399C38.3025 32.2099 40.0225 28.0599 40.0225 23.6399V21.2799H42.2325C41.7325 17.2499 39.9425 13.3599 36.8625 10.2699C33.7825 7.17988 29.9125 5.37988 25.9025 4.87988V7.09988L25.8925 7.08988Z" fill="#1C1C1C"/>
</svg>
